<?xml version="1.0" encoding="UTF-8" standalone="no"?>
<svg
   xmlns:dc="http://purl.org/dc/elements/1.1/"
   xmlns:cc="http://creativecommons.org/ns#"
   xmlns:rdf="http://www.w3.org/1999/02/22-rdf-syntax-ns#"
   xmlns:svg="http://www.w3.org/2000/svg"
   xmlns="http://www.w3.org/2000/svg"
   xmlns:sodipodi="http://sodipodi.sourceforge.net/DTD/sodipodi-0.dtd"
   xmlns:inkscape="http://www.inkscape.org/namespaces/inkscape"
   width="13.092538mm"
   height="13.074979mm"
   viewBox="0 0 13.092538 13.074979"
   version="1.1"
   id="svg2185"
   inkscape:version="1.0.1 (3bc2e813f5, 2020-09-07)"
   sodipodi:docname="facebook.svg"
   inkscape:export-filename="C:\Users\delai\Documents\Practica pagina web\PARCIAL\img\facebook.png"
   inkscape:export-xdpi="3000"
   inkscape:export-ydpi="3000">
  <defs
     id="defs2179" />
  <sodipodi:namedview
     id="base"
     pagecolor="#ffffff"
     bordercolor="#666666"
     borderopacity="1.0"
     inkscape:pageopacity="0.0"
     inkscape:pageshadow="2"
     inkscape:zoom="5.6568543"
     inkscape:cx="30.244158"
     inkscape:cy="24.239301"
     inkscape:document-units="mm"
     inkscape:current-layer="layer1"
     inkscape:document-rotation="0"
     showgrid="false"
     inkscape:window-width="1920"
     inkscape:window-height="1017"
     inkscape:window-x="-8"
     inkscape:window-y="-8"
     inkscape:window-maximized="1" />
  <metadata
     id="metadata2182">
    <rdf:RDF>
      <cc:Work
         rdf:about="">
        <dc:format>image/svg+xml</dc:format>
        <dc:type
           rdf:resource="http://purl.org/dc/dcmitype/StillImage" />
        <dc:title />
      </cc:Work>
    </rdf:RDF>
  </metadata>
  <g
     inkscape:label="Capa 1"
     inkscape:groupmode="layer"
     id="layer1"
     transform="translate(-194.92768,-198.89089)">
    <rect
       style="fill:#0000ff;stroke-width:0.403442;stroke-linecap:round;stroke-linejoin:round;stroke-opacity:0.75"
       id="rect839"
       width="12.99307"
       height="12.975177"
       x="194.97742"
       y="198.94078"
       ry="6.4875884" />
    <path
       style="fill:#ffffff;fill-opacity:1;stroke:none;stroke-width:0.0147094;stroke-linecap:round;stroke-linejoin:round;stroke-miterlimit:4;stroke-dasharray:none;stroke-opacity:1"
       d="m 200.95824,211.94806 c -2.28452,-0.17669 -4.32805,-1.57381 -5.32384,-3.61588 -0.793,-1.62462 -0.91706,-3.23188 -0.38014,-4.90473 0.93991,-2.92333 3.71909,-4.76349 6.81887,-4.514 2.9648,0.23909 5.40673,2.53673 5.8727,5.52684 0.32253,2.06679 -0.4198,4.26565 -1.91432,5.67925 -0.67193,0.63622 -1.93188,1.40362 -2.48541,1.5142 l -0.17666,0.0396 v -2.37047 -2.37069 l 0.70266,-0.0211 0.70274,-0.0211 0.0895,-0.74935 c 0.0396,-0.41089 0.11009,-0.79597 0.11009,-0.85354 0.004,-0.0895 -0.0695,-0.11008 -0.80193,-0.11008 h -0.80891 v -0.68083 c 0,-0.59455 0.0211,-0.70073 0.13288,-0.83571 0.15494,-0.19841 0.45057,-0.27905 1.06099,-0.27905 l 0.49326,-4.8e-4 v -0.74535 c 0,-0.40891 -0.0211,-0.76028 -0.0396,-0.77813 -0.0211,-0.0211 -0.45258,-0.0396 -0.94386,-0.0396 -0.99918,-0.006 -1.302,0.0693 -1.75513,0.42681 -0.52803,0.41783 -0.71861,0.98355 -0.71861,2.1419 l -6.6e-4,0.794 h -0.7186 -0.71856 v 0.86844 0.86842 h 0.71856 0.7186 v 2.51135 c 0,1.38146 -0.0211,2.52095 -0.0396,2.53264 -0.0211,0.0105 -0.27904,0.002 -0.56372,-0.0211 z"
       id="path1286" />
  </g>
</svg>
