<?xml version="1.0" encoding="UTF-8" standalone="no"?>
<svg
   xmlns:dc="http://purl.org/dc/elements/1.1/"
   xmlns:cc="http://creativecommons.org/ns#"
   xmlns:rdf="http://www.w3.org/1999/02/22-rdf-syntax-ns#"
   xmlns:svg="http://www.w3.org/2000/svg"
   xmlns="http://www.w3.org/2000/svg"
   xmlns:sodipodi="http://sodipodi.sourceforge.net/DTD/sodipodi-0.dtd"
   xmlns:inkscape="http://www.inkscape.org/namespaces/inkscape"
   width="165.62917mm"
   height="165.62917mm"
   viewBox="0 0 165.62918 165.62918"
   version="1.1"
   id="svg8"
   inkscape:version="1.0.1 (3bc2e813f5, 2020-09-07)"
   sodipodi:docname="PAGINA WEB.svg">
  <defs
     id="defs2" />
  <sodipodi:namedview
     id="base"
     pagecolor="#ffffff"
     bordercolor="#666666"
     borderopacity="1.0"
     inkscape:pageopacity="0.0"
     inkscape:pageshadow="2"
     inkscape:zoom="1"
     inkscape:cx="196.12965"
     inkscape:cy="394.20932"
     inkscape:document-units="mm"
     inkscape:current-layer="layer1"
     inkscape:document-rotation="0"
     showgrid="true"
     units="mm"
     inkscape:window-width="1920"
     inkscape:window-height="1017"
     inkscape:window-x="-8"
     inkscape:window-y="-8"
     inkscape:window-maximized="1"
     inkscape:snap-global="false">
    <inkscape:grid
       type="xygrid"
       id="grid839" />
  </sodipodi:namedview>
  <metadata
     id="metadata5">
    <rdf:RDF>
      <cc:Work
         rdf:about="">
        <dc:format>image/svg+xml</dc:format>
        <dc:type
           rdf:resource="http://purl.org/dc/dcmitype/StillImage" />
        <dc:title></dc:title>
      </cc:Work>
    </rdf:RDF>
  </metadata>
  <g
     inkscape:label="Capa 1"
     inkscape:groupmode="layer"
     id="layer1">
    <g
       id="g952">
      <rect
         style="fill:#001b46;fill-opacity:1;stroke-width:0.389001;stroke-linecap:round;stroke-linejoin:round"
         id="rect835"
         width="166.30952"
         height="166.30952"
         x="0.27211666"
         y="-1.2162771" />
      <path
         style="fill:none;stroke:#2092fc;stroke-width:2.365;stroke-linecap:round;stroke-linejoin:round;stroke-opacity:1;stroke-miterlimit:4;stroke-dasharray:none"
         d="M 21.166666,26.458333 H 111.125"
         id="path841" />
      <path
         style="fill:none;stroke:#ff6800;stroke-width:2.365;stroke-linecap:round;stroke-linejoin:round;stroke-miterlimit:4;stroke-dasharray:none;stroke-opacity:1"
         d="M 26.458333,37.041667 H 116.41667"
         id="path852" />
      <path
         style="fill:none;stroke:#ff0041;stroke-width:2.365;stroke-linecap:round;stroke-linejoin:round;stroke-miterlimit:4;stroke-dasharray:none;stroke-opacity:1"
         d="M 21.166667,47.625 H 111.125"
         id="path854" />
      <path
         style="fill:none;stroke:#aa5ba5;stroke-width:2.01721;stroke-linecap:round;stroke-linejoin:round;stroke-miterlimit:4;stroke-dasharray:none;stroke-opacity:1"
         d="m 31.75,58.208333 h 76.72917"
         id="path856" />
      <path
         style="fill:none;stroke:#ffcd41;stroke-width:1.73897;stroke-linecap:round;stroke-linejoin:round;stroke-miterlimit:4;stroke-dasharray:none;stroke-opacity:1"
         d="M 31.75,79.375 H 97.895833"
         id="path860" />
      <path
         style="fill:none;stroke:#ffcd41;stroke-width:2.06813;stroke-linecap:round;stroke-linejoin:round;stroke-miterlimit:4;stroke-dasharray:none;stroke-opacity:1"
         d="m 21.166663,89.958333 h 68.79167"
         id="path862" />
      <path
         style="fill:none;stroke:#ff5698;stroke-width:2.01721;stroke-linecap:round;stroke-linejoin:round;stroke-miterlimit:4;stroke-dasharray:none;stroke-opacity:1"
         d="m 23.8125,68.791667 h 76.72917"
         id="path864" />
      <path
         style="fill:#217968;fill-opacity:1;stroke:none;stroke-width:4.76035;stroke-linecap:square;stroke-linejoin:round;stroke-miterlimit:4;stroke-dasharray:none;stroke-opacity:1"
         d="M 6.7145502,60.19628 V 12.587947 L 7.3534791,11.81108 7.992408,11.034213 83.136387,10.952945 c 53.316903,-0.05766 75.431903,0.0057 76.135223,0.218293 1.93318,0.584219 1.78857,-3.3997695 1.78857,49.272736 v 47.360646 h -2.11796 -2.11795 V 61.565253 15.325891 H 83.887362 10.950451 V 61.565253 107.80462 H 8.8325004 6.7145502 Z"
         id="path899" />
      <path
         style="fill:#217968;fill-opacity:1;stroke:none;stroke-width:4.7213;stroke-linecap:square;stroke-linejoin:round;stroke-miterlimit:4;stroke-dasharray:none;stroke-opacity:1"
         d="m 6.7189068,105.94897 v -2.3151 H 83.889541 161.06018 v 2.3151 2.31511 H 83.889541 6.7189068 Z"
         id="path901" />
      <g
         id="g913">
        <path
           style="fill:#ffffff;fill-opacity:1;stroke:none;stroke-width:3.32898;stroke-linecap:square;stroke-linejoin:round;stroke-miterlimit:4;stroke-dasharray:none;stroke-opacity:1"
           d="M 7.992456,130.02234 C 6.6593195,129.34026 6.6834514,129.5592 6.6831259,118.14272 l -2.91e-4,-10.20332 h 2.1515197 2.1515194 v 9.00575 9.00573 h 72.871037 72.871039 v -9.00573 -9.00575 h 2.15151 2.15152 l -7.9e-4,10.29913 c -7.9e-4,9.99207 -0.012,10.31802 -0.37827,10.93338 -0.20767,0.34885 -0.66769,0.75841 -1.02228,0.91015 -0.55747,0.23857 -10.81584,0.27586 -75.813586,0.27559 -71.189176,-2.7e-4 -75.2035002,-0.018 -75.823643,-0.33531 z"
           id="path903" />
        <path
           style="fill:#ffffff;fill-opacity:1;stroke:none;stroke-width:3.36667;stroke-linecap:square;stroke-linejoin:round;stroke-miterlimit:4;stroke-dasharray:none;stroke-opacity:1"
           d="m 10.590178,117.03749 v -9.10085 H 84.24694 157.9037 v 9.10085 9.10086 H 84.24694 10.590178 Z"
           id="path907" />
      </g>
      <path
         style="fill:none;fill-opacity:1;stroke:#000000;stroke-width:3.12503;stroke-linecap:square;stroke-linejoin:round;stroke-miterlimit:4;stroke-dasharray:none;stroke-opacity:1"
         id="path915"
         sodipodi:type="arc"
         sodipodi:cx="83.856911"
         sodipodi:cy="119.14715"
         sodipodi:rx="7.6426568"
         sodipodi:ry="7.6426568"
         sodipodi:start="0.0012424563"
         sodipodi:end="0.0011555179"
         sodipodi:arc-type="slice"
         d="m 91.499562,119.15664 a 7.6426568,7.6426568 0 0 1 -7.651981,7.63316 7.6426568,7.6426568 0 0 1 -7.633322,-7.65182 7.6426568,7.6426568 0 0 1 7.651649,-7.63348 7.6426568,7.6426568 0 0 1 7.633654,7.65148 l -7.642651,-0.009 z" />
      <g
         id="g931">
        <path
           style="fill:none;stroke:#ffffff;stroke-width:1.581;stroke-linecap:round;stroke-linejoin:miter;stroke-miterlimit:4;stroke-dasharray:none;stroke-opacity:1"
           d="m 79.968177,129.20938 c 0,0 1.888595,6.33937 -0.08537,12.96397 -2.046549,6.86819 -8.178627,8.48712 -8.178627,8.48712"
           id="path917"
           sodipodi:nodetypes="csc" />
        <path
           style="fill:none;stroke:#ffffff;stroke-width:1.581;stroke-linecap:round;stroke-linejoin:miter;stroke-miterlimit:4;stroke-dasharray:none;stroke-opacity:1"
           d="m 88.468942,129.20938 c 0,0 -1.888595,6.33937 0.08537,12.96397 2.046549,6.86819 8.178627,8.48712 8.178627,8.48712"
           id="path919"
           sodipodi:nodetypes="csc" />
        <path
           style="fill:none;stroke:#ffffff;stroke-width:1.581;stroke-linecap:butt;stroke-linejoin:miter;stroke-miterlimit:4;stroke-dasharray:none;stroke-opacity:1"
           d="M 72.358383,150.38255 H 96.033717"
           id="path921"
           sodipodi:nodetypes="cc" />
        <path
           style="fill:#ffffff;fill-opacity:1;stroke:#ffffff;stroke-width:0.282445;stroke-linecap:round;stroke-linejoin:round;stroke-miterlimit:4;stroke-dasharray:none;stroke-opacity:1"
           d="m 75.369685,149.57065 c 0.02491,-0.0218 0.206127,-0.16382 0.40272,-0.31567 1.618286,-1.24993 2.886858,-2.80849 3.812678,-4.68424 1.666836,-3.37708 2.213232,-8.32179 1.451548,-13.13611 -0.06848,-0.43283 -0.136227,-0.84498 -0.150551,-0.91588 l -0.02604,-0.12892 h 3.20234 c 3.027916,0 3.200933,0.004 3.176512,0.082 -0.01421,0.0451 -0.0803,0.40902 -0.146884,0.80867 -0.392257,2.35452 -0.463472,5.19384 -0.186367,7.43032 0.35871,2.8951 1.117614,5.22123 2.332395,7.14905 0.810649,1.28648 2.079213,2.64955 3.329207,3.57723 l 0.233235,0.1731 h -8.738031 c -4.805916,0 -8.717656,-0.0178 -8.692753,-0.0396 z"
           id="path925" />
      </g>
    </g>
  </g>
</svg>
