<?xml version="1.0" encoding="UTF-8" standalone="no"?>
<svg
   xmlns:dc="http://purl.org/dc/elements/1.1/"
   xmlns:cc="http://creativecommons.org/ns#"
   xmlns:rdf="http://www.w3.org/1999/02/22-rdf-syntax-ns#"
   xmlns:svg="http://www.w3.org/2000/svg"
   xmlns="http://www.w3.org/2000/svg"
   xmlns:xlink="http://www.w3.org/1999/xlink"
   xmlns:sodipodi="http://sodipodi.sourceforge.net/DTD/sodipodi-0.dtd"
   xmlns:inkscape="http://www.inkscape.org/namespaces/inkscape"
   width="165.62917mm"
   height="165.62917mm"
   viewBox="0 0 165.62918 165.62918"
   version="1.1"
   id="svg8"
   inkscape:version="1.0.1 (3bc2e813f5, 2020-09-07)"
   sodipodi:docname="Servicios startup.svg">
  <defs
     id="defs2">
    <inkscape:path-effect
       effect="bspline"
       id="path-effect1350"
       is_visible="true"
       lpeversion="1"
       weight="33.333333"
       steps="2"
       helper_size="0"
       apply_no_weight="true"
       apply_with_weight="true"
       only_selected="false" />
    <inkscape:path-effect
       effect="bspline"
       id="path-effect1346"
       is_visible="true"
       lpeversion="1"
       weight="33.333333"
       steps="2"
       helper_size="0"
       apply_no_weight="true"
       apply_with_weight="true"
       only_selected="false" />
    <inkscape:path-effect
       effect="bspline"
       id="path-effect1342"
       is_visible="true"
       lpeversion="1"
       weight="33.333333"
       steps="2"
       helper_size="0"
       apply_no_weight="true"
       apply_with_weight="true"
       only_selected="false" />
    <inkscape:path-effect
       effect="spiro"
       id="path-effect1338"
       is_visible="true"
       lpeversion="1" />
    <linearGradient
       inkscape:collect="always"
       id="linearGradient1279">
      <stop
         style="stop-color:#8c48b3;stop-opacity:1"
         offset="0"
         id="stop1275" />
      <stop
         style="stop-color:#09c7e7;stop-opacity:1"
         offset="1"
         id="stop1277" />
    </linearGradient>
    <inkscape:path-effect
       effect="bspline"
       id="path-effect1181"
       is_visible="true"
       lpeversion="1"
       weight="33.333333"
       steps="2"
       helper_size="0"
       apply_no_weight="true"
       apply_with_weight="true"
       only_selected="false" />
    <inkscape:path-effect
       effect="bspline"
       id="path-effect1177"
       is_visible="true"
       lpeversion="1"
       weight="33.333333"
       steps="2"
       helper_size="0"
       apply_no_weight="true"
       apply_with_weight="true"
       only_selected="false" />
    <inkscape:path-effect
       effect="bspline"
       id="path-effect1171"
       is_visible="true"
       lpeversion="1"
       weight="33.333333"
       steps="2"
       helper_size="0"
       apply_no_weight="true"
       apply_with_weight="true"
       only_selected="false" />
    <inkscape:path-effect
       effect="bspline"
       id="path-effect1167"
       is_visible="true"
       lpeversion="1"
       weight="33.333333"
       steps="2"
       helper_size="0"
       apply_no_weight="true"
       apply_with_weight="true"
       only_selected="false" />
    <inkscape:path-effect
       effect="spiro"
       id="path-effect1159"
       is_visible="true"
       lpeversion="1" />
    <inkscape:path-effect
       effect="spiro"
       id="path-effect1155"
       is_visible="true"
       lpeversion="1" />
    <inkscape:path-effect
       effect="bspline"
       id="path-effect1147"
       is_visible="true"
       lpeversion="1"
       weight="33.333333"
       steps="2"
       helper_size="0"
       apply_no_weight="true"
       apply_with_weight="true"
       only_selected="false" />
    <linearGradient
       inkscape:collect="always"
       xlink:href="#linearGradient1279"
       id="linearGradient1289"
       gradientUnits="userSpaceOnUse"
       x1="-74.553154"
       y1="37.451817"
       x2="-90.185204"
       y2="40.607021"
       gradientTransform="matrix(1.388566,-2.1344073,2.1344073,1.388566,-29.773183,-166.07855)" />
  </defs>
  <sodipodi:namedview
     id="base"
     pagecolor="#ffffff"
     bordercolor="#666666"
     borderopacity="1.0"
     inkscape:pageopacity="0.0"
     inkscape:pageshadow="2"
     inkscape:zoom="1.3210863"
     inkscape:cx="10.388093"
     inkscape:cy="271.58547"
     inkscape:document-units="mm"
     inkscape:current-layer="g1449"
     inkscape:document-rotation="0"
     showgrid="false"
     units="mm"
     inkscape:window-width="1920"
     inkscape:window-height="1017"
     inkscape:window-x="-8"
     inkscape:window-y="-8"
     inkscape:window-maximized="1"
     inkscape:snap-global="false"
     showguides="true"
     inkscape:guide-bbox="true">
    <inkscape:grid
       type="xygrid"
       id="grid839" />
  </sodipodi:namedview>
  <metadata
     id="metadata5">
    <rdf:RDF>
      <cc:Work
         rdf:about="">
        <dc:format>image/svg+xml</dc:format>
        <dc:type
           rdf:resource="http://purl.org/dc/dcmitype/StillImage" />
        <dc:title></dc:title>
      </cc:Work>
    </rdf:RDF>
  </metadata>
  <g
     inkscape:label="Capa 1"
     inkscape:groupmode="layer"
     id="layer1">
    <g
       id="g952">
      <g
         id="g1449">
        <rect
           style="fill:#e6e6e6;fill-opacity:1;stroke-width:0.389001;stroke-linecap:round;stroke-linejoin:round"
           id="rect835"
           width="166.30952"
           height="166.30952"
           x="0.27211666"
           y="-1.2162771" />
        <path
           style="fill:#4b9dff;stroke:none;stroke-width:0.409;stroke-linecap:butt;stroke-linejoin:miter;stroke-opacity:0.75083059;fill-opacity:1;stroke-miterlimit:4;stroke-dasharray:none"
           d="m 88.691989,100.32914 c -0.11796,-2.307814 -0.353938,-6.924601 2.40724,-10.660282 2.761178,-3.735681 8.518967,-6.588724 13.828981,-7.496285 5.31,-0.907562 10.17105,0.129889 14.30061,2.59441 4.12956,2.464521 7.52759,6.355028 9.12572,9.675644 1.59813,3.320615 1.39741,6.071213 3.50639,7.199423 2.10897,1.12821 6.52636,0.63511 10.36695,1.00519 3.84059,0.37008 7.10337,1.60268 8.76951,3.8844 1.66614,2.28171 1.73666,5.6115 3.21243,7.23765 1.47577,1.62615 4.35562,1.54967 6.57436,2.31607 2.21873,0.76641 3.77616,2.37449 4.55436,5.17576 0.77819,2.80127 0.77819,6.79545 -2.0295,8.81799 -2.80769,2.02255 -8.42375,2.07441 -20.90728,1.97066 -12.48353,-0.10374 -31.83303,-0.36312 -43.207371,-0.82989 -11.374337,-0.46677 -14.772339,-1.14113 -17.250324,-2.61906 -2.477986,-1.47793 -4.035423,-3.76035 -5.003283,-6.14659 -0.967859,-2.38624 -1.345409,-4.87613 -1.062443,-7.52204 0.282965,-2.64591 1.22684,-5.44704 3.492667,-7.52251 2.265826,-2.07546 5.852627,-3.42416 7.645802,-4.09842 1.793176,-0.67427 1.79314,-0.67431 1.675181,-2.98212 z"
           id="path1340"
           inkscape:path-effect="#path-effect1342"
           inkscape:original-d="m 88.809948,102.63695 c -0.234755,-4.615683 -0.470907,-9.232462 -0.707938,-13.850429 5.759066,-2.851995 11.516852,-5.705043 17.27367,-8.559278 4.86234,1.038679 9.72339,2.076127 14.58352,3.112432 3.3992,3.891815 6.79724,7.782312 10.19429,11.671753 -0.19956,2.751906 -0.4004,5.502492 -0.6022,8.252072 4.41875,-0.492 8.83614,-0.9851 13.25281,-1.47938 3.26411,1.23388 6.52689,2.46649 9.78889,3.69801 0.0716,3.3312 0.14197,6.66099 0.21155,9.98982 2.88108,-0.0752 5.76094,-0.15165 8.63978,-0.22945 1.55854,1.60931 3.11598,3.21739 4.67241,4.82434 8.9e-4,3.99555 8.9e-4,7.98973 0,11.98296 -5.61537,0.0532 -11.23143,0.10505 -16.84892,0.1556 -19.34959,-0.25846 -38.6991,-0.51758 -58.050814,-0.77815 -3.397126,-0.67323 -6.795124,-1.3476 -10.194287,-2.02312 -1.556466,-2.28135 -3.113902,-4.56377 -4.672413,-6.84741 -0.376714,-2.48883 -0.754078,-4.97875 -1.132678,-7.46987 0.944997,-2.80013 1.888881,-5.60126 2.831717,-8.40367 3.588009,-1.3476 7.174809,-2.6963 10.760649,-4.04619 z"
           sodipodi:nodetypes="cccccccccccccccccccc" />
        <path
           style="fill:#368fd9;fill-opacity:1;stroke:none;stroke-width:0.409;stroke-linecap:butt;stroke-linejoin:miter;stroke-opacity:0.75;stroke-miterlimit:4;stroke-dasharray:none"
           d="m 60.344952,88.56073 c 0.07598,-1.386002 0.22798,-4.158706 -1.550597,-6.402253 -1.778577,-2.243547 -5.487335,-3.956999 -8.907635,-4.502045 -3.4203,-0.545046 -6.551444,0.07802 -9.211422,1.558135 -2.659979,1.480119 -4.848744,3.816636 -5.878147,5.810894 -1.029402,1.994258 -0.900109,3.646184 -2.258567,4.323757 -1.358458,0.677573 -4.203826,0.381428 -6.677645,0.603685 -2.473819,0.222257 -4.575471,0.962522 -5.648691,2.332856 -1.073219,1.370333 -1.118639,3.370103 -2.069226,4.346717 -0.950586,0.976614 -2.805588,0.930682 -4.234734,1.390961 -1.429146,0.46028 -2.432336,1.426046 -2.933595,3.108403 -0.501258,1.68236 -0.501258,4.08114 1.307257,5.29582 1.808515,1.21468 5.42598,1.24581 13.466983,1.18349 8.041003,-0.0623 20.504581,-0.21809 27.831127,-0.49843 7.326545,-0.28033 9.515299,-0.68533 11.11143,-1.57292 1.596132,-0.8876 2.599318,-2.25835 3.222747,-3.69145 0.623428,-1.4331 0.86662,-2.928461 0.684349,-4.517538 -0.182272,-1.589077 -0.790248,-3.271352 -2.249747,-4.517801 -1.459499,-1.24645 -3.769863,-2.056438 -4.92488,-2.461374 -1.155017,-0.404936 -1.154988,-0.404906 -1.079007,-1.790907 z"
           id="path1344"
           inkscape:path-effect="#path-effect1346"
           inkscape:original-d="m 60.268971,89.946731 c 0.151213,-2.772044 0.303328,-5.544742 0.456001,-8.318148 -3.709577,-1.712825 -7.418333,-3.426281 -11.126468,-5.140445 -3.131974,0.623799 -6.263118,1.24686 -9.393669,1.869231 -2.189523,2.33731 -4.378298,4.673818 -6.566437,7.009699 0.128543,1.652714 0.25791,3.304634 0.387895,4.95595 -2.846245,-0.29548 -5.691613,-0.591621 -8.536518,-0.888476 -2.102508,0.741036 -4.204159,1.481304 -6.305306,2.220918 -0.04611,2.000617 -0.09145,4.000389 -0.136267,5.999582 -1.855786,-0.04516 -3.710788,-0.09108 -5.565133,-0.137801 -1.0039,0.966504 -2.007093,1.932267 -3.009634,2.897359 -5.7e-4,2.3996 -5.7e-4,4.79838 0,7.19661 3.617022,0.032 7.234489,0.063 10.852878,0.0934 12.46363,-0.15523 24.92721,-0.31085 37.392209,-0.46735 2.188187,-0.40431 4.376938,-0.80932 6.566433,-1.21502 1.00257,-1.37011 2.005756,-2.74086 3.009634,-4.11235 0.242662,-1.49471 0.485731,-2.990088 0.729594,-4.486179 -0.608703,-1.681674 -1.216683,-3.363948 -1.82399,-5.04699 -2.311145,-0.809328 -4.621508,-1.619317 -6.931251,-2.43002 z"
           sodipodi:nodetypes="cccccccccccccccccccc" />
        <path
           style="fill:#3f6bcf;fill-opacity:1;stroke:none;stroke-width:0.409;stroke-linecap:butt;stroke-linejoin:miter;stroke-opacity:0.75;stroke-miterlimit:4;stroke-dasharray:none"
           d="m 89.190729,125.1635 c 0.11796,-2.30781 0.353938,-6.9246 -2.407239,-10.66028 -2.761177,-3.73568 -8.518966,-6.58873 -13.828976,-7.49629 -5.31001,-0.90756 -10.171059,0.12989 -14.300619,2.59441 -4.129559,2.46453 -7.52759,6.35503 -9.125721,9.67565 -1.598131,3.32061 -1.397404,6.07121 -3.506381,7.19942 -2.108977,1.12821 -6.526366,0.63511 -10.366954,1.00519 -3.840588,0.37008 -7.103371,1.60268 -8.769513,3.8844 -1.666142,2.28171 -1.736655,5.6115 -3.212424,7.23765 -1.475769,1.62615 -4.355628,1.54967 -6.574359,2.31607 -2.218731,0.76641 -3.776169,2.37449 -4.554361,5.17576 -0.778193,2.80127 -0.778193,6.79545 2.029498,8.81799 2.80769,2.02255 8.42375,2.07441 20.907278,1.97066 12.483528,-0.10374 31.833034,-0.36312 43.207371,-0.82989 11.374337,-0.46677 14.772339,-1.14113 17.250324,-2.61906 2.477986,-1.47793 4.035422,-3.76035 5.003277,-6.14659 0.96786,-2.38624 1.34541,-4.87613 1.06245,-7.52204 -0.28297,-2.64591 -1.22684,-5.44704 -3.492668,-7.52251 -2.265826,-2.07546 -5.852627,-3.42416 -7.645802,-4.09842 -1.793176,-0.67427 -1.79314,-0.67431 -1.675181,-2.98212 z"
           id="path1348"
           inkscape:path-effect="#path-effect1350"
           inkscape:original-d="m 89.07277,127.47131 c 0.234755,-4.61568 0.470907,-9.23246 0.707938,-13.85043 -5.759066,-2.85199 -11.516852,-5.70504 -17.27367,-8.55928 -4.86234,1.03868 -9.72339,2.07613 -14.58352,3.11244 -3.3992,3.89181 -6.79724,7.78231 -10.19429,11.67175 0.19956,2.7519 0.4004,5.50249 0.6022,8.25207 -4.41875,-0.492 -8.83614,-0.9851 -13.25281,-1.47938 -3.26411,1.23388 -6.52689,2.46649 -9.78889,3.69801 -0.0716,3.3312 -0.14197,6.66099 -0.21155,9.98982 -2.88108,-0.0752 -5.76094,-0.15165 -8.63978,-0.22945 -1.55854,1.60931 -3.115979,3.21739 -4.672409,4.82434 -8.9e-4,3.99555 -8.9e-4,7.98973 0,11.98296 5.615369,0.0532 11.231429,0.10505 16.848919,0.1556 19.34959,-0.25846 38.6991,-0.51758 58.050814,-0.77815 3.397126,-0.67323 6.795124,-1.3476 10.194287,-2.02312 1.556466,-2.28135 3.113902,-4.56377 4.672411,-6.84741 0.37672,-2.48883 0.75408,-4.97875 1.13268,-7.46987 -0.945,-2.80013 -1.88888,-5.60126 -2.831717,-8.40367 -3.588009,-1.3476 -7.174809,-2.6963 -10.760649,-4.04619 z"
           sodipodi:nodetypes="cccccccccccccccccccc" />
        <g
           id="g1332"
           transform="matrix(1.388566,-2.1344073,2.1344073,1.388566,101.8482,-175.79501)">
          <path
             style="fill:#ffd52f;fill-opacity:1;stroke:none;stroke-width:0.264583px;stroke-linecap:butt;stroke-linejoin:miter;stroke-opacity:1"
             d="m -96.074818,52.702374 c 0,0 2.359573,0.828965 -2.030566,5.112887 -4.390136,4.283924 -6.160356,7.222482 -4.673366,4.213114 2.00612,-4.059979 3.646643,-6.266563 1.41617,-4.850391 -2.23047,1.416174 -2.54911,3.788262 -4.0715,4.708774 -1.75538,1.061383 3.43422,-6.762225 3.82367,-7.611929 0.38945,-0.849704 -0.67268,-0.106213 -0.67268,-0.106213 0,0 -2.76154,4.390137 -3.71746,5.523075 -0.95591,1.132938 -4.00069,3.894475 -0.21242,-1.486983 3.78826,-5.381456 3.54043,-5.558477 3.54043,-5.558477 0,0 0.74349,-1.699408 -0.17702,-0.8143 -0.92051,0.885108 -5.66392,9.564519 -5.94793,7.61193 -0.28323,-1.947238 4.60256,-7.788952 4.53175,-8.10759 -0.27013,-1.215545 -0.92051,-0.460258 -1.34536,0.141616 -1.71746,2.433077 -4.34743,7.417729 -4.0715,6.195757 0.49566,-2.195068 0.77859,-3.480015 1.06214,-4.000688 1.41115,-2.591277 1.59319,-2.832347 2.72613,-4.036093 1.13293,-1.203748 1.06213,-1.522386 2.79694,-2.407494 l 1.73481,-0.885108 -0.0376,0.0751"
             id="path1323"
             sodipodi:nodetypes="cssssscsscsssssssscc" />
          <path
             style="fill:#ffad2f;fill-opacity:1;stroke:none;stroke-width:0.228899px;stroke-linecap:butt;stroke-linejoin:miter;stroke-opacity:1"
             d="m -96.213292,52.598175 c 0,0 1.71746,0.242969 -2.040284,3.988875 -3.757744,3.745909 -5.272964,6.315415 -4.000174,3.683992 1.71714,-3.550089 3.121349,-5.479549 1.21217,-4.241233 -1.90917,1.238317 -2.18191,3.312496 -3.485,4.117401 -1.50252,0.928085 2.93953,-5.912961 3.27287,-6.655951 0.33335,-0.74299 -0.57578,-0.09287 -0.57578,-0.09287 0,0 -2.36374,3.838783 -3.18196,4.829435 -0.81821,0.990653 -3.4244,3.405371 -0.18182,-1.300233 3.24256,-4.705602 3.03043,-4.860391 3.03043,-4.860391 0,0 0.63639,-1.48598 -0.15152,-0.712033 -0.78791,0.773948 -4.84804,8.363317 -5.09114,6.655952 -0.24243,-1.702685 3.93957,-6.810742 3.87896,-7.089362 -0.23122,-1.062885 -0.78791,-0.402454 -1.15156,0.123831 -1.47006,2.127508 -3.72119,6.48614 -3.48501,5.417635 0.42426,-1.919391 0.66644,-3.042962 0.90914,-3.498244 1.20788,-2.26584 1.3637,-2.476634 2.33344,-3.529202 0.96973,-1.05257 0.90913,-1.331191 2.39404,-2.105138 l 1.48491,-0.773948 -0.15021,0.0751"
             id="path1325"
             sodipodi:nodetypes="cssssscsscsssssssscc" />
          <path
             style="fill:#ff5b2f;fill-opacity:1;stroke:none;stroke-width:0.201404px;stroke-linecap:butt;stroke-linejoin:miter;stroke-opacity:1"
             d="m -96.688814,51.98223 c 0,0 1.384607,0.474909 -1.849776,3.844204 -3.23438,3.369298 -4.53857,5.680468 -3.44305,3.313606 1.47799,-3.193165 2.686624,-4.928638 1.04335,-3.814822 -1.64327,1.113818 -1.87803,2.97946 -2.99963,3.70344 -1.29325,0.834776 2.53012,-5.318476 2.81704,-5.986766 0.28692,-0.66829 -0.49559,-0.08353 -0.49559,-0.08353 0,0 -2.03453,3.452835 -2.73879,4.343887 -0.70425,0.891054 -2.94746,3.062998 -0.1565,-1.169508 2.79096,-4.232504 2.60837,-4.371731 2.60837,-4.371731 0,0 0.54776,-1.336581 -0.13042,-0.640446 -0.67817,0.696136 -4.17282,7.522475 -4.38207,5.986768 -0.20866,-1.531499 3.39089,-6.125995 3.33872,-6.376603 -0.19902,-0.956023 -0.67817,-0.361991 -0.99118,0.111381 -1.26531,1.91361 -3.20292,5.834028 -2.99963,4.87295 0.36517,-1.726417 0.57362,-2.737025 0.78252,-3.146533 1.03965,-2.038034 1.17377,-2.227635 2.00845,-3.174378 0.83467,-0.946746 0.78251,-1.197354 2.06061,-1.893489 l 1.2781,-0.696136 -0.0876,0.01252"
             id="path1327"
             sodipodi:nodetypes="cssssscsscsssssssscc" />
        </g>
        <g
           id="g1365"
           transform="translate(300.57575,-38.117922)"
           style="stroke:none">
          <path
             sodipodi:type="star"
             style="opacity:1;fill:#09c7e7;fill-opacity:1;stroke:none;stroke-width:0.409001;stroke-linecap:round;stroke-linejoin:round;stroke-miterlimit:4;stroke-dasharray:none;stroke-opacity:0.75"
             id="path1362"
             sodipodi:sides="5"
             sodipodi:cx="-200.21732"
             sodipodi:cy="73.029381"
             sodipodi:r1="2.0028808"
             sodipodi:r2="5.1388102"
             sodipodi:arg1="-2.8389124"
             sodipodi:arg2="-2.2833472"
             inkscape:flatsided="false"
             inkscape:rounded="0"
             inkscape:randomized="0"
             d="m -202.12915,72.432363 -1.44775,-3.291503 3.33659,1.885772 2.68303,-2.394021 -0.76241,3.756021 3.10595,1.811916 -3.80779,0.435577 -0.76344,3.513847 -1.59093,-3.48682 -3.57779,0.35976 z"
             inkscape:transform-center-x="-0.28217534"
             inkscape:transform-center-y="-5.5781639" />
        </g>
        <g
           id="g1369"
           transform="translate(281.78853,-61.676418)"
           style="stroke:none">
          <path
             sodipodi:type="star"
             style="opacity:1;fill:#09c7e7;fill-opacity:1;stroke:none;stroke-width:0.409001;stroke-linecap:round;stroke-linejoin:round;stroke-miterlimit:4;stroke-dasharray:none;stroke-opacity:0.75"
             id="path1367"
             sodipodi:sides="5"
             sodipodi:cx="-200.21732"
             sodipodi:cy="73.029381"
             sodipodi:r1="2.0028808"
             sodipodi:r2="5.1388102"
             sodipodi:arg1="-2.8389124"
             sodipodi:arg2="-2.2833472"
             inkscape:flatsided="false"
             inkscape:rounded="0"
             inkscape:randomized="0"
             d="m -202.12915,72.432363 -1.44775,-3.291503 3.33659,1.885772 2.68303,-2.394021 -0.76241,3.756021 3.10595,1.811916 -3.80779,0.435577 -0.76344,3.513847 -1.59093,-3.48682 -3.57779,0.35976 z"
             inkscape:transform-center-x="-0.28217534"
             inkscape:transform-center-y="-5.5781639" />
        </g>
        <g
           id="g1377"
           transform="translate(224.43567,-8.2540614)"
           style="stroke:none">
          <path
             sodipodi:type="star"
             style="opacity:1;fill:#09c7e7;fill-opacity:1;stroke:none;stroke-width:0.409001;stroke-linecap:round;stroke-linejoin:round;stroke-miterlimit:4;stroke-dasharray:none;stroke-opacity:0.75"
             id="path1375"
             sodipodi:sides="5"
             sodipodi:cx="-200.21732"
             sodipodi:cy="73.029381"
             sodipodi:r1="2.0028808"
             sodipodi:r2="5.1388102"
             sodipodi:arg1="-2.8389124"
             sodipodi:arg2="-2.2833472"
             inkscape:flatsided="false"
             inkscape:rounded="0"
             inkscape:randomized="0"
             d="m -202.12915,72.432363 -1.44775,-3.291503 3.33659,1.885772 2.68303,-2.394021 -0.76241,3.756021 3.10595,1.811916 -3.80779,0.435577 -0.76344,3.513847 -1.59093,-3.48682 -3.57779,0.35976 z"
             inkscape:transform-center-x="-0.28217534"
             inkscape:transform-center-y="-5.5781639" />
        </g>
        <g
           id="g1391"
           transform="translate(329.23449,-54.637835)"
           style="stroke:none">
          <path
             sodipodi:type="star"
             style="opacity:1;fill:#09c7e7;fill-opacity:1;stroke:none;stroke-width:0.409001;stroke-linecap:round;stroke-linejoin:round;stroke-miterlimit:4;stroke-dasharray:none;stroke-opacity:0.75"
             id="path1389"
             sodipodi:sides="5"
             sodipodi:cx="-200.21732"
             sodipodi:cy="73.029381"
             sodipodi:r1="2.0028808"
             sodipodi:r2="5.1388102"
             sodipodi:arg1="-2.8389124"
             sodipodi:arg2="-2.2833472"
             inkscape:flatsided="false"
             inkscape:rounded="0"
             inkscape:randomized="0"
             d="m -202.12915,72.432363 -1.44775,-3.291503 3.33659,1.885772 2.68303,-2.394021 -0.76241,3.756021 3.10595,1.811916 -3.80779,0.435577 -0.76344,3.513847 -1.59093,-3.48682 -3.57779,0.35976 z"
             inkscape:transform-center-x="-0.28217534"
             inkscape:transform-center-y="-5.5781639" />
        </g>
        <g
           id="g1395"
           transform="translate(348.11747,-20.133239)"
           style="stroke:none">
          <path
             sodipodi:type="star"
             style="opacity:1;fill:#09c7e7;fill-opacity:1;stroke:none;stroke-width:0.409001;stroke-linecap:round;stroke-linejoin:round;stroke-miterlimit:4;stroke-dasharray:none;stroke-opacity:0.75"
             id="path1393"
             sodipodi:sides="5"
             sodipodi:cx="-200.21732"
             sodipodi:cy="73.029381"
             sodipodi:r1="2.0028808"
             sodipodi:r2="5.1388102"
             sodipodi:arg1="-2.8389124"
             sodipodi:arg2="-2.2833472"
             inkscape:flatsided="false"
             inkscape:rounded="0"
             inkscape:randomized="0"
             d="m -202.12915,72.432363 -1.44775,-3.291503 3.33659,1.885772 2.68303,-2.394021 -0.76241,3.756021 3.10595,1.811916 -3.80779,0.435577 -0.76344,3.513847 -1.59093,-3.48682 -3.57779,0.35976 z"
             inkscape:transform-center-x="-0.28217534"
             inkscape:transform-center-y="-5.5781639" />
        </g>
        <g
           id="g1399"
           transform="translate(215.22638,-62.151174)"
           style="stroke:none">
          <path
             sodipodi:type="star"
             style="opacity:1;fill:#09c7e7;fill-opacity:1;stroke:none;stroke-width:0.409001;stroke-linecap:round;stroke-linejoin:round;stroke-miterlimit:4;stroke-dasharray:none;stroke-opacity:0.75"
             id="path1397"
             sodipodi:sides="5"
             sodipodi:cx="-200.21732"
             sodipodi:cy="73.029381"
             sodipodi:r1="2.0028808"
             sodipodi:r2="5.1388102"
             sodipodi:arg1="-2.8389124"
             sodipodi:arg2="-2.2833472"
             inkscape:flatsided="false"
             inkscape:rounded="0"
             inkscape:randomized="0"
             d="m -202.12915,72.432363 -1.44775,-3.291503 3.33659,1.885772 2.68303,-2.394021 -0.76241,3.756021 3.10595,1.811916 -3.80779,0.435577 -0.76344,3.513847 -1.59093,-3.48682 -3.57779,0.35976 z"
             inkscape:transform-center-x="-0.28217534"
             inkscape:transform-center-y="-5.5781639" />
        </g>
        <g
           id="g1465"
           transform="translate(131.1815,15.821891)">
          <path
             style="opacity:1;fill:#13c5f2;fill-opacity:0.627907;stroke:#a800e5;stroke-width:3.28222;stroke-linecap:round;stroke-linejoin:round;stroke-miterlimit:4;stroke-dasharray:none;stroke-opacity:1"
             id="path1173"
             sodipodi:type="arc"
             sodipodi:cx="-69.371674"
             sodipodi:cy="-32.275234"
             sodipodi:rx="8.4782867"
             sodipodi:ry="8.4782867"
             sodipodi:start="0.0012424563"
             sodipodi:end="6.2577243"
             sodipodi:arc-type="arc"
             d="m -60.893393,-32.2647 a 8.4782867,8.4782867 0 0 1 -8.432215,8.467627 8.4782867,8.4782867 0 0 1 -8.523731,-8.375498 8.4782867,8.4782867 0 0 1 8.318409,-8.579454 8.4782867,8.4782867 0 0 1 8.634795,8.260948"
             sodipodi:open="true"
             transform="rotate(-56.95347)" />
          <path
             style="opacity:1;fill:url(#linearGradient1289);fill-opacity:1;stroke:none;stroke-width:0.0828806;stroke-linecap:round;stroke-linejoin:round;stroke-miterlimit:4;stroke-dasharray:none;stroke-opacity:1"
             d="m -54.675285,84.248643 c -13.930114,1.631238 -16.497526,1.917638 -16.598595,1.851558 -0.324638,-0.212 -2.573315,-5.413068 -3.828186,-8.853748 -6.414912,-17.588843 -6.775014,-37.350372 -1.008317,-55.334456 l 0.585121,-1.824768 1.982223,1.192571 c 2.159213,1.299004 3.255952,1.747073 4.660761,1.904131 3.061743,0.342282 6.094943,-0.634586 10.270573,-3.307717 l 1.26454,-0.809531 1.42591,2.497716 c 6.05534,10.60693 9.35854,22.000055 9.89333,34.123247 0.3223,7.306223 -0.45635,15.036467 -2.21747,22.014717 -0.39986,1.58441 -1.62922,5.77176 -1.74824,5.9547 -0.0168,0.0258 -2.12355,0.29205 -4.68167,0.5916 z m -2.17028,-40.911999 c 0.78041,-2.288501 0.51581,-5.039653 -0.67566,-7.025024 -0.82668,-1.377466 -1.4615,-2.040692 -2.75827,-2.881603 -2.11539,-1.371418 -3.9851,-1.711969 -6.46527,-1.176623 -2.3963,0.517234 -3.902701,1.563774 -5.264921,3.657685 -1.38664,2.131446 -1.717535,3.90035 -1.193044,6.377784 0.372098,1.757595 0.959296,2.927344 2.03456,4.053004 0.736385,0.770902 2.489399,1.910223 3.496593,2.272367 2.137952,0.768976 5.021652,0.481415 6.986812,-0.696731 0.56881,-0.341012 1.2755,-0.839485 1.57041,-1.107718 0.72072,-0.655511 1.94937,-2.536399 2.26869,-3.473336 z"
             id="path1261" />
          <path
             style="opacity:1;fill:#774861;fill-opacity:1;stroke:none;stroke-width:0.0828806;stroke-linecap:round;stroke-linejoin:round;stroke-miterlimit:4;stroke-dasharray:none;stroke-opacity:1"
             d="m -58.927235,19.097674 c -4.1304,2.654227 -7.008326,3.610734 -9.800408,3.257264 -1.633537,-0.206793 -2.592079,-0.607964 -4.673628,-1.955986 l -1.816168,-1.175567 0.422641,-1.169974 c 1.248248,-3.455439 3.546569,-8.4495571 5.48117,-11.9102661 l 0.639155,-1.143324 0.316922,0.30281 c 0.99944,0.955043 4.280766,4.610809 5.544856,6.1775921 2.06391,2.558098 5.04896,6.743582 4.92971,6.91215 -0.0243,0.035 -0.49464,0.352355 -1.04449,0.705701 z"
             id="path1263" />
          <path
             style="opacity:1;fill:#774861;fill-opacity:1;stroke:none;stroke-width:0.117211;stroke-linecap:round;stroke-linejoin:round;stroke-miterlimit:4;stroke-dasharray:none;stroke-opacity:1"
             d="m -30.575833,80.644133 c -0.79921,0.12798 -1.559662,-0.19236 -4.421292,-1.86246 -4.17048,-2.43399 -5.70247,-2.97458 -9.6448,-3.40334 l -2.13014,-0.23168 0.3958,-2.02598 c 0.8215,-4.20511 1.40699,-11.272628 1.28275,-15.484195 -0.0258,-0.874495 -0.0196,-1.572238 0.0138,-1.550535 0.0334,0.0217 0.9311,0.902514 1.99501,1.95737 3.47186,3.442325 5.41109,5.831864 7.37763,9.09082 2.17971,3.61221 4.688972,9.09356 5.315142,11.61064 0.37315,1.50002 0.34266,1.81504 -0.18386,1.89936 z"
             id="path1297" />
          <path
             style="opacity:1;fill:#774861;fill-opacity:1;stroke:none;stroke-width:0.117211;stroke-linecap:round;stroke-linejoin:round;stroke-miterlimit:4;stroke-dasharray:none;stroke-opacity:1"
             d="m -77.008474,78.334213 c -2.03136,0.89833 -4.158002,2.34658 -7.095883,4.83232 -1.614653,1.36614 -3.332313,2.716968 -3.817027,3.001828 -1.032151,0.60657 -2.595909,1.01565 -2.964865,0.77562 -0.379761,-0.24706 -0.465792,-1.42213 -0.246557,-3.367658 0.466046,-4.13563 1.617087,-8.35758 3.268632,-11.98911 0.969997,-2.13291 4.051038,-7.285662 6.084626,-10.17596 l 1.427029,-2.028177 0.273556,1.951466 c 0.56876,4.057376 2.348374,11.197791 3.726742,14.952961 0.285232,0.77708 0.497853,1.44777 0.47248,1.49042 -0.02536,0.0426 -0.533299,0.29298 -1.128721,0.55629 z"
             id="path1299" />
          <path
             style="opacity:1;fill:#774861;fill-opacity:1;stroke:none;stroke-width:0.117211;stroke-linecap:round;stroke-linejoin:round;stroke-miterlimit:4;stroke-dasharray:none;stroke-opacity:1"
             d="m -56.762315,88.377651 c -9.545881,1.2314 -13.445992,1.65453 -14.07713,1.52726 -0.25737,-0.0519 -0.586728,-0.22234 -0.731892,-0.37874 -0.28889,-0.31128 -0.270395,-1.73051 0.02854,-2.19001 0.123749,-0.19022 1.667036,-0.4577 4.533364,-0.78571 2.390158,-0.27352 7.207448,-0.83196 10.705098,-1.24096 5.6409,-0.659628 6.44231,-0.705818 7.09353,-0.408788 0.64518,0.29427 0.75054,0.412228 0.86932,0.973268 0.29316,1.38476 0.32378,1.37565 -8.42083,2.50368 z"
             id="path1301" />
          <path
             sodipodi:type="star"
             style="opacity:1;fill:#1330b8;fill-opacity:1;stroke:#2b1d76;stroke-width:0.16739;stroke-linecap:round;stroke-linejoin:round;stroke-miterlimit:4;stroke-dasharray:none;stroke-opacity:1"
             id="path1303"
             sodipodi:sides="5"
             sodipodi:cx="95.24012"
             sodipodi:cy="67.338493"
             sodipodi:r1="0.63493711"
             sodipodi:r2="0.66420597"
             sodipodi:arg1="0.61072596"
             sodipodi:arg2="1.3536931"
             inkscape:flatsided="false"
             inkscape:rounded="0"
             inkscape:randomized="0"
             d="m 95.760281,67.702606 -0.37709,0.284501 -0.328624,-0.04139 -0.387104,-0.270718 -0.06218,-0.325332 0.137846,-0.451814 0.290194,-0.159672 0.472298,-0.0085 0.241531,0.22665 0.15405,0.446549 z"
             inkscape:transform-center-x="0.076394697"
             inkscape:transform-center-y="0.044641816"
             transform="rotate(-56.95347,-5.303078,208.46761)" />
          <path
             sodipodi:type="star"
             style="opacity:1;fill:#1330b8;fill-opacity:1;stroke:#2b1d76;stroke-width:0.16739;stroke-linecap:round;stroke-linejoin:round;stroke-miterlimit:4;stroke-dasharray:none;stroke-opacity:1"
             id="path1309"
             sodipodi:sides="5"
             sodipodi:cx="103.27218"
             sodipodi:cy="59.306431"
             sodipodi:r1="0.63493711"
             sodipodi:r2="0.66420597"
             sodipodi:arg1="0.61072596"
             sodipodi:arg2="1.3536931"
             inkscape:flatsided="false"
             inkscape:rounded="0"
             inkscape:randomized="0"
             d="m 103.79234,59.670543 -0.37709,0.284502 -0.32862,-0.0414 -0.38711,-0.270718 -0.0622,-0.325332 0.13785,-0.451814 0.29019,-0.159671 0.4723,-0.0085 0.24153,0.22665 0.15405,0.446549 z"
             inkscape:transform-center-x="0.076395324"
             inkscape:transform-center-y="0.044638828"
             transform="rotate(-56.95347,-5.303078,208.46761)" />
          <path
             sodipodi:type="star"
             style="opacity:1;fill:#1330b8;fill-opacity:1;stroke:#2b1d76;stroke-width:0.16739;stroke-linecap:round;stroke-linejoin:round;stroke-miterlimit:4;stroke-dasharray:none;stroke-opacity:1"
             id="path1311"
             sodipodi:sides="5"
             sodipodi:cx="110.57113"
             sodipodi:cy="67.274757"
             sodipodi:r1="0.63493711"
             sodipodi:r2="0.66420597"
             sodipodi:arg1="0.61072596"
             sodipodi:arg2="1.3536931"
             inkscape:flatsided="false"
             inkscape:rounded="0"
             inkscape:randomized="0"
             d="m 111.09129,67.63887 -0.37709,0.284501 -0.32862,-0.04139 -0.38711,-0.270718 -0.0622,-0.325332 0.13785,-0.451814 0.29019,-0.159672 0.4723,-0.0085 0.24153,0.22665 0.15405,0.446549 z"
             inkscape:transform-center-x="0.076400892"
             inkscape:transform-center-y="0.044644605"
             transform="rotate(-56.95347,-5.303078,208.46761)" />
          <path
             sodipodi:type="star"
             style="opacity:1;fill:#1330b8;fill-opacity:1;stroke:#2b1d76;stroke-width:0.16739;stroke-linecap:round;stroke-linejoin:round;stroke-miterlimit:4;stroke-dasharray:none;stroke-opacity:1"
             id="path1313"
             sodipodi:sides="5"
             sodipodi:cx="103.39966"
             sodipodi:cy="74.637482"
             sodipodi:r1="0.63493711"
             sodipodi:r2="0.66420597"
             sodipodi:arg1="0.61072596"
             sodipodi:arg2="1.3536931"
             inkscape:flatsided="false"
             inkscape:rounded="0"
             inkscape:randomized="0"
             d="m 103.91982,75.001594 -0.37709,0.284502 -0.32862,-0.04139 -0.38711,-0.270718 -0.0622,-0.325332 0.13785,-0.451814 0.29019,-0.159671 0.4723,-0.0085 0.24153,0.226649 0.15405,0.44655 z"
             inkscape:transform-center-x="0.076399111"
             inkscape:transform-center-y="0.044636693"
             transform="rotate(-56.95347,-5.303078,208.46761)" />
          <path
             sodipodi:type="star"
             style="opacity:1;fill:#1330b8;fill-opacity:1;stroke:#2b1d76;stroke-width:0.16739;stroke-linecap:round;stroke-linejoin:round;stroke-miterlimit:4;stroke-dasharray:none;stroke-opacity:1"
             id="path1315"
             sodipodi:sides="5"
             sodipodi:cx="97.853706"
             sodipodi:cy="72.75695"
             sodipodi:r1="0.63493711"
             sodipodi:r2="0.66420597"
             sodipodi:arg1="0.61072596"
             sodipodi:arg2="1.3536931"
             inkscape:flatsided="false"
             inkscape:rounded="0"
             inkscape:randomized="0"
             d="m 98.373867,73.121063 -0.37709,0.284501 -0.328624,-0.04139 -0.387104,-0.270718 -0.06218,-0.325332 0.137846,-0.451814 0.290193,-0.159672 0.472298,-0.0085 0.241531,0.22665 0.15405,0.446549 z"
             inkscape:transform-center-x="0.076401454"
             inkscape:transform-center-y="0.044640392"
             transform="rotate(-56.95347,-5.303078,208.46761)" />
          <path
             sodipodi:type="star"
             style="opacity:1;fill:#1330b8;fill-opacity:1;stroke:#2b1d76;stroke-width:0.16739;stroke-linecap:round;stroke-linejoin:round;stroke-miterlimit:4;stroke-dasharray:none;stroke-opacity:1"
             id="path1317"
             sodipodi:sides="5"
             sodipodi:cx="97.248116"
             sodipodi:cy="61.951916"
             sodipodi:r1="0.63493711"
             sodipodi:r2="0.66420597"
             sodipodi:arg1="0.61072596"
             sodipodi:arg2="1.3536931"
             inkscape:flatsided="false"
             inkscape:rounded="0"
             inkscape:randomized="0"
             d="m 97.768276,62.316028 -0.377089,0.284502 -0.328625,-0.0414 -0.387104,-0.270718 -0.06218,-0.325332 0.137846,-0.451814 0.290194,-0.159671 0.472297,-0.0085 0.241532,0.226649 0.15405,0.44655 z"
             inkscape:transform-center-x="0.076396995"
             inkscape:transform-center-y="0.044635733"
             transform="rotate(-56.95347,-5.303078,208.46761)" />
          <path
             sodipodi:type="star"
             style="opacity:1;fill:#1330b8;fill-opacity:1;stroke:#2b1d76;stroke-width:0.16739;stroke-linecap:round;stroke-linejoin:round;stroke-miterlimit:4;stroke-dasharray:none;stroke-opacity:1"
             id="path1319"
             sodipodi:sides="5"
             sodipodi:cx="109.16871"
             sodipodi:cy="62.589397"
             sodipodi:r1="0.63493711"
             sodipodi:r2="0.66420597"
             sodipodi:arg1="0.61072596"
             sodipodi:arg2="1.3536931"
             inkscape:flatsided="false"
             inkscape:rounded="0"
             inkscape:randomized="0"
             d="m 109.68887,62.95351 -0.37709,0.284502 -0.32862,-0.04139 -0.38711,-0.270718 -0.0622,-0.325332 0.13785,-0.451814 0.29019,-0.159672 0.4723,-0.0085 0.24153,0.226649 0.15405,0.446549 z"
             inkscape:transform-center-x="0.076394965"
             inkscape:transform-center-y="0.044641549"
             transform="rotate(-56.95347,-5.303078,208.46761)" />
          <path
             sodipodi:type="star"
             style="opacity:1;fill:#1330b8;fill-opacity:1;stroke:#2b1d76;stroke-width:0.16739;stroke-linecap:round;stroke-linejoin:round;stroke-miterlimit:4;stroke-dasharray:none;stroke-opacity:1"
             id="path1321"
             sodipodi:sides="5"
             sodipodi:cx="108.49936"
             sodipodi:cy="72.310738"
             sodipodi:r1="0.63493711"
             sodipodi:r2="0.66420597"
             sodipodi:arg1="0.61072596"
             sodipodi:arg2="1.3536931"
             inkscape:flatsided="false"
             inkscape:rounded="0"
             inkscape:randomized="0"
             d="m 109.01952,72.67485 -0.37709,0.284502 -0.32862,-0.04139 -0.38711,-0.270718 -0.0622,-0.325332 0.13785,-0.451814 0.29019,-0.159671 0.4723,-0.0085 0.24153,0.226649 0.15405,0.44655 z"
             inkscape:transform-center-x="0.076398185"
             inkscape:transform-center-y="0.044645399"
             transform="rotate(-56.95347,-5.303078,208.46761)" />
        </g>
        <g
           id="g1403"
           transform="translate(239.49916,-46.016569)"
           style="stroke:none">
          <path
             sodipodi:type="star"
             style="opacity:1;fill:#09c7e7;fill-opacity:1;stroke:none;stroke-width:0.409001;stroke-linecap:round;stroke-linejoin:round;stroke-miterlimit:4;stroke-dasharray:none;stroke-opacity:0.75"
             id="path1401"
             sodipodi:sides="5"
             sodipodi:cx="-200.21732"
             sodipodi:cy="73.029381"
             sodipodi:r1="2.0028808"
             sodipodi:r2="5.1388102"
             sodipodi:arg1="-2.8389124"
             sodipodi:arg2="-2.2833472"
             inkscape:flatsided="false"
             inkscape:rounded="0"
             inkscape:randomized="0"
             d="m -202.12915,72.432363 -1.44775,-3.291503 3.33659,1.885772 2.68303,-2.394021 -0.76241,3.756021 3.10595,1.811916 -3.80779,0.435577 -0.76344,3.513847 -1.59093,-3.48682 -3.57779,0.35976 z"
             inkscape:transform-center-x="-0.28217534"
             inkscape:transform-center-y="-5.5781639" />
        </g>
      </g>
    </g>
  </g>
</svg>
