<?xml version="1.0" encoding="UTF-8" standalone="no"?>
<svg
   xmlns:dc="http://purl.org/dc/elements/1.1/"
   xmlns:cc="http://creativecommons.org/ns#"
   xmlns:rdf="http://www.w3.org/1999/02/22-rdf-syntax-ns#"
   xmlns:svg="http://www.w3.org/2000/svg"
   xmlns="http://www.w3.org/2000/svg"
   xmlns:sodipodi="http://sodipodi.sourceforge.net/DTD/sodipodi-0.dtd"
   xmlns:inkscape="http://www.inkscape.org/namespaces/inkscape"
   width="13.093mm"
   height="13.075mm"
   viewBox="0 0 13.093001 13.075"
   version="1.1"
   id="svg2185"
   inkscape:version="1.0.1 (3bc2e813f5, 2020-09-07)"
   sodipodi:docname="twitter.svg">
  <defs
     id="defs2179" />
  <sodipodi:namedview
     id="base"
     pagecolor="#ffffff"
     bordercolor="#666666"
     borderopacity="1.0"
     inkscape:pageopacity="0.0"
     inkscape:pageshadow="2"
     inkscape:zoom="7.919596"
     inkscape:cx="21.637993"
     inkscape:cy="34.483049"
     inkscape:document-units="mm"
     inkscape:current-layer="g1443"
     inkscape:document-rotation="0"
     showgrid="false"
     inkscape:window-width="1920"
     inkscape:window-height="1017"
     inkscape:window-x="-8"
     inkscape:window-y="-8"
     inkscape:window-maximized="1" />
  <metadata
     id="metadata2182">
    <rdf:RDF>
      <cc:Work
         rdf:about="">
        <dc:format>image/svg+xml</dc:format>
        <dc:type
           rdf:resource="http://purl.org/dc/dcmitype/StillImage" />
        <dc:title />
      </cc:Work>
    </rdf:RDF>
  </metadata>
  <g
     inkscape:label="Capa 1"
     inkscape:groupmode="layer"
     id="layer1"
     transform="translate(-194.76581,-203.6176)">
    <g
       id="g1443"
       transform="matrix(0.95164444,0,0,0.95165466,9.8953908,10.020196)">
      <g
         id="g2638"
         transform="matrix(1.0526618,0,0,1.052653,-10.230297,-10.711323)">
        <rect
           style="fill:#00cfff;fill-opacity:1;stroke-width:0.402737;stroke-linecap:round;stroke-linejoin:round;stroke-opacity:0.75"
           id="rect839"
           width="12.970426"
           height="12.952426"
           x="194.31395"
           y="203.48219"
           ry="6.476213" />
        <path
           style="fill:#ffffff;fill-opacity:1;stroke:none;stroke-width:0.0156011;stroke-linecap:round;stroke-linejoin:round;stroke-miterlimit:4;stroke-dasharray:none;stroke-opacity:1"
           d="m 199.78414,216.40391 c -2.79486,-0.46818 -4.90195,-2.52927 -5.44565,-5.32475 -0.13006,-0.70336 -0.0866,-2.03023 0.10831,-2.72519 0.51981,-1.89645 1.82605,-3.48828 3.50834,-4.27362 3.91043,-1.82524 8.33322,0.36247 9.29177,4.59748 0.12989,0.54369 0.10824,2.09927 -0.0217,2.65484 -0.17326,0.68176 -0.3379,1.14131 -0.65637,1.72169 -0.80367,1.46925 -2.10775,2.56594 -3.67286,3.08891 -0.99426,0.33227 -2.1185,0.4272 -3.10547,0.26107 z m 0.89463,-3.52258 c 0.80799,-0.22223 1.24992,-0.47897 1.84997,-1.07229 0.79714,-0.7875 1.21092,-1.65697 1.30626,-2.73596 l 0.0435,-0.52429 0.37259,-0.37107 c 0.19492,-0.19418 0.37257,-0.397 0.37257,-0.42936 0,-0.0647 -0.10831,-0.0647 -0.24265,-0.003 -0.0649,0.0216 -0.19499,0.0647 -0.29894,0.10795 l -0.19499,0.0433 0.17335,-0.17256 c 0.0866,-0.10798 0.21662,-0.27618 0.27722,-0.39487 0.13008,-0.2481 0.17336,-0.2481 -0.51555,0.003 -0.37907,0.12952 -0.39207,0.12952 -0.50683,0.0216 -0.34665,-0.34522 -1.1525,-0.45956 -1.65505,-0.233 -0.54803,0.24809 -0.91627,0.82848 -0.91627,1.44336 v 0.27402 l -0.27081,-0.0431 c -0.91628,-0.12952 -1.80231,-0.57389 -2.43985,-1.22547 -0.17324,-0.17259 -0.3292,-0.31931 -0.34867,-0.32148 -0.0866,-0.002 -0.21666,0.56313 -0.21666,0.89538 0.011,0.37109 0.12988,0.67315 0.3618,0.93421 l 0.12999,0.15109 -0.15167,-0.0216 c -0.0866,-0.0176 -0.21663,-0.0647 -0.27947,-0.0863 -0.10829,-0.0431 -0.10829,-0.0216 -0.0649,0.26105 0.0649,0.49191 0.25129,0.76378 0.69534,1.06366 l 0.24693,0.17259 h -0.19489 c -0.1517,0 -0.19498,0.0216 -0.19498,0.10781 0,0.31288 0.72141,0.96011 1.07232,0.96011 0.22523,0 0.15171,0.10782 -0.17334,0.27833 -0.39422,0.19417 -0.76897,0.29775 -1.31918,0.34735 l -0.44629,0.0431 0.22311,0.12938 c 0.63255,0.36894 1.23696,0.51997 2.13372,0.52859 0.53076,0.005 0.81671,-0.0216 1.17415,-0.12952 z"
           id="path1302" />
      </g>
    </g>
  </g>
</svg>
